<svg width="101" height="28" viewBox="0 0 101 28" fill="none" xmlns="http://www.w3.org/2000/svg">
<path d="M100.997 18.3089C100.997 18.3249 100.983 18.3368 100.967 18.3368C99.3197 18.5161 97.7921 19.0897 96.4795 19.9661C96.4795 19.9661 96.4782 19.9667 96.4755 19.9681C96.1648 20.1752 92.4303 23.0035 92.3905 23.0314C90.7174 24.2702 88.646 25.0012 86.4033 25.0012H69.1588C69.1428 25.0012 69.1289 24.9892 69.1289 24.9713C69.1289 24.9554 69.1428 24.9434 69.1588 24.9434C70.8059 24.7642 72.3336 24.1905 73.6461 23.3162C73.6481 23.3162 73.6481 23.3162 73.6501 23.3122C73.8294 23.1927 75.134 22.2108 76.2215 21.3921H86.4033C89.0085 21.3921 91.4882 20.5755 93.5795 19.0299L93.7588 18.8945C94.0516 18.6734 94.3224 18.4683 94.5734 18.2791H100.967C100.983 18.2791 100.997 18.293 100.997 18.3089Z" fill="#191919"/>
<path d="M100.997 12.7064C100.997 12.7223 100.983 12.7362 100.967 12.7362C99.3197 12.9135 97.7921 13.4891 96.4795 14.3635C96.4775 14.3635 96.4775 14.3635 96.4755 14.3635C96.2963 14.483 94.9917 15.4649 93.9042 16.2855C93.0955 16.895 92.4084 17.4148 92.3905 17.4288C91.9602 17.7455 91.5041 18.0303 91.0241 18.2773C89.6418 18.9943 88.0704 19.3986 86.4033 19.3986H69.1588C69.1428 19.3986 69.1289 19.3847 69.1289 19.3687C69.1289 19.3528 69.1428 19.3389 69.1588 19.3389C70.8059 19.1616 72.3336 18.586 73.6461 17.7116C73.6481 17.7116 73.6481 17.7116 73.6501 17.7116C73.8294 17.5921 75.134 16.6102 76.2215 15.7896H86.4033C89.0085 15.7896 91.4882 14.973 93.5795 13.4274L93.7588 13.2919C94.0516 13.0708 94.3204 12.8657 94.5714 12.6785H100.967C100.983 12.6785 100.997 12.6904 100.997 12.7064Z" fill="#191919"/>
<path d="M100.997 7.10556C100.997 7.12149 100.983 7.13344 100.967 7.13344C99.3197 7.3127 97.7921 7.88632 96.4795 8.76269C96.4795 8.76269 96.4782 8.76335 96.4755 8.76468C96.2963 8.88419 94.9917 9.86612 93.9042 10.6867C93.0955 11.2962 92.4084 11.816 92.3905 11.828C91.9602 12.1467 91.5041 12.4315 91.0241 12.6785C89.6418 13.3935 88.0704 13.7978 86.4033 13.7978H69.1588C69.1428 13.7978 69.1289 13.7859 69.1289 13.7679C69.1289 13.752 69.1428 13.7401 69.1588 13.7401C70.8059 13.5608 72.3336 12.9872 73.6461 12.1128C73.6481 12.1128 73.6481 12.1128 73.6501 12.1088C73.9608 11.9017 77.6954 9.07539 77.7352 9.04552C79.4083 7.80665 81.4797 7.07568 83.7224 7.07568H100.967C100.983 7.07568 100.997 7.08963 100.997 7.10556Z" fill="#191919"/>
<path d="M77.072 5.09173C74.3273 5.72511 73.7756 6.27682 73.1423 9.02144C73.1343 9.05331 73.0905 9.05331 73.0825 9.02144C72.4491 6.27682 71.8974 5.72511 69.1528 5.09173C69.1209 5.08377 69.1209 5.03995 69.1528 5.03198C71.8974 4.39861 72.4491 3.84689 73.0825 1.10227C73.0905 1.0704 73.1343 1.0704 73.1423 1.10227C73.7756 3.84689 74.3273 4.39861 77.072 5.03198C77.1038 5.03995 77.1038 5.08377 77.072 5.09173Z" fill="#191919"/>
<path d="M5.36705 7.63718C5.36705 6.92215 5.51643 6.4262 5.80723 6.15931C6.10599 5.88843 6.61189 5.751 7.31298 5.751H8.64148V3.15576H6.91464C5.95262 3.15576 5.12605 3.31112 4.46081 3.61785C3.77963 3.93055 3.25979 4.4245 2.91521 5.08178C2.57463 5.72909 2.40334 6.56961 2.40334 7.57544V9.76835H0.0471039V12.3337H2.40533V24.9753H5.36705V12.3337H11.649V24.9753H14.6127V9.76835H5.36705V7.63718Z" fill="#191919"/>
<path d="M13.1606 3.146C12.6229 3.146 12.1568 3.32326 11.7724 3.67182C11.384 4.02635 11.1888 4.49042 11.1888 5.05608C11.1888 5.62173 11.384 6.09378 11.7684 6.46623C12.1508 6.83869 12.6209 7.0279 13.1606 7.0279C13.7004 7.0279 14.1963 6.83869 14.5688 6.46623C14.9413 6.09378 15.1305 5.61974 15.1305 5.05807C15.1305 4.4964 14.9393 4.02834 14.5628 3.6758C14.1904 3.32525 13.7183 3.14799 13.1586 3.14799L13.1606 3.146Z" fill="#191919"/>
<path d="M20.9486 3.15576H17.9849V25.0012H20.9486V3.15576Z" fill="#191919"/>
<path d="M35.1536 9.48748C34.0761 8.79635 32.7476 8.4458 31.206 8.4458C29.6643 8.4458 28.3598 8.79436 27.2026 9.4835C26.0434 10.1726 25.1331 11.1466 24.4958 12.3775C23.8624 13.6024 23.5397 15.0644 23.5397 16.7215C23.5397 18.3786 23.8664 19.8167 24.5097 21.0515C25.155 22.2924 26.0613 23.2703 27.1986 23.9595C28.3378 24.6486 29.6643 24.9972 31.1422 24.9972C32.3691 24.9972 33.4626 24.7801 34.3927 24.3519C35.3229 23.9236 36.1136 23.3241 36.741 22.5693C37.3684 21.8164 37.8146 20.9559 38.0655 20.0138L38.1312 19.7689H35.1994L35.1516 19.8963C34.8608 20.6711 34.3748 21.2925 33.7096 21.7467C33.0423 22.2008 32.1779 22.4318 31.1402 22.4318C30.3216 22.4318 29.5468 22.2247 28.8358 21.8144C28.1267 21.4061 27.5451 20.7847 27.105 19.9621C26.7405 19.2829 26.5254 18.4543 26.4596 17.4963H38.4559L38.4698 17.315C38.4898 17.0163 38.5017 16.7613 38.5017 16.5363V15.8929C38.5017 14.5624 38.2109 13.3216 37.6373 12.2062C37.0637 11.0888 36.2271 10.1726 35.1496 9.4835L35.1536 9.48748ZM26.4975 15.1201C26.5851 14.4031 26.7843 13.7757 27.089 13.2579C27.5172 12.5289 28.0929 11.9652 28.8039 11.5868C29.517 11.2064 30.3037 11.0132 31.1462 11.0132C32.395 11.0132 33.4487 11.3976 34.2752 12.1544C35.056 12.8715 35.5002 13.8693 35.5918 15.1201H26.4995H26.4975Z" fill="#191919"/>
<path d="M50.3786 3.09204H47.381L39.3384 24.9753H42.4495L44.4313 19.4901H53.2726L55.2444 24.9753H58.3874L50.4244 3.21951L50.3766 3.09204H50.3786ZM52.3883 17.0183H45.3216L48.8629 7.17113L52.3883 17.0183Z" fill="#191919"/>
<path d="M63.1534 3.15576H60.1897V24.9753H63.1534V3.15576Z" fill="#191919"/>
</svg>
